<svg xmlns="http://www.w3.org/2000/svg" viewBox="0 0 720 420" role="img"><defs><linearGradient id="g" x1="0" y1="0" x2="1" y2="1"><stop stop-color="#8A4CFF"/><stop offset="1" stop-color="#6F2CFF"/></linearGradient></defs><g fill="none" stroke-linecap="round" stroke-linejoin="round"><rect x="72" y="64" width="476" height="270" rx="28" fill="#12161D" stroke="#2A313C"/><path d="M112 286 L174 224 L232 244 L312 166 L388 206 L502 106" stroke="url(#g)" stroke-width="12"/><rect x="112" y="104" width="104" height="72" rx="14" stroke="#8A4CFF" opacity=".75"/><rect x="240" y="104" width="104" height="72" rx="14" stroke="#E6B845" opacity=".55"/><rect x="368" y="104" width="104" height="72" rx="14" stroke="#8A4CFF" opacity=".45"/><circle cx="586" cy="290" r="62" fill="#F8F9FA" stroke="#D9DDE5"/><path d="M546 300 C558 278 584 274 598 294 C612 275 641 278 654 303 C632 327 606 329 598 316 C588 329 563 326 546 300 Z" fill="#F5A623" stroke="#B86D0B"/></g></svg>
